<svg width="39" height="41" viewBox="0 0 39 41" fill="none" xmlns="http://www.w3.org/2000/svg">
<rect x="1" y="1" width="37" height="39" rx="10" fill="#747474" stroke="black"/>
<path d="M9 20V14.5C9 13.9477 9.44772 13.5 10 13.5H15H30.5C31.0523 13.5 31.5 13.9477 31.5 14.5V20V25.75V30.5C31.5 31.0523 31.0523 31.5 30.5 31.5H18H10C9.44772 31.5 9 31.0523 9 30.5V25.75V20Z" fill="white"/>
<path d="M9 20V14.5C9 13.9477 9.44772 13.5 10 13.5H15M9 20V25.75M9 20H15M31.5 20V14.5C31.5 13.9477 31.0523 13.5 30.5 13.5H15M31.5 20V25.75M31.5 20H24.75M31.5 25.75V30.5C31.5 31.0523 31.0523 31.5 30.5 31.5H18M31.5 25.75H24.75M9 25.75V30.5C9 31.0523 9.44772 31.5 10 31.5H18M9 25.75H18M18 25.75V31.5M18 25.75H24.75M24.75 25.75V20M24.75 20H15M15 20V13.5" stroke="black"/>
</svg>
