<svg width="59" height="63" viewBox="0 0 59 63" fill="none" xmlns="http://www.w3.org/2000/svg">
<path d="M13.3243 30.7179V21.5513C13.3243 20.999 13.772 20.5513 14.3243 20.5513H22.5676H46.9865C47.5388 20.5513 47.9865 20.999 47.9865 21.5513V30.7179V39.7115V47.7051C47.9865 48.2574 47.5388 48.7051 46.9865 48.7051H27.1892H14.3243C13.772 48.7051 13.3243 48.2574 13.3243 47.7051V39.7115V30.7179Z" fill="white"/>
<path d="M13.3243 30.7179V21.5513C13.3243 20.999 13.772 20.5513 14.3243 20.5513H22.5676M13.3243 30.7179V39.7115M13.3243 30.7179H22.5676M47.9865 30.7179V21.5513C47.9865 20.999 47.5388 20.5513 46.9865 20.5513H22.5676M47.9865 30.7179V39.7115M47.9865 30.7179H37.5878M47.9865 39.7115V47.7051C47.9865 48.2574 47.5388 48.7051 46.9865 48.7051H27.1892M47.9865 39.7115H37.5878M13.3243 39.7115V47.7051C13.3243 48.2574 13.772 48.7051 14.3243 48.7051H27.1892M13.3243 39.7115H27.1892M27.1892 39.7115V48.7051M27.1892 39.7115H37.5878M37.5878 39.7115V30.7179M37.5878 30.7179H22.5676M22.5676 30.7179V20.5513" stroke="black"/>
</svg>
