<svg width="39" height="41" viewBox="0 0 39 41" fill="none" xmlns="http://www.w3.org/2000/svg">
<path d="M29.2156 29.6995L26.0956 31.6747L24.1084 32.9327C23.6418 33.2281 23.024 33.0893 22.7286 32.6227L17.9145 25.0184C17.6191 24.5518 17.0014 24.413 16.5347 24.7084L14.9292 25.7248C14.3359 26.1004 13.5506 25.7637 13.4135 25.0751L9.99919 7.92117C9.82332 7.03757 10.8139 6.39026 11.5525 6.90611L26.0595 17.0376C26.6452 17.4466 26.6254 18.3202 26.0218 18.7024L25.0215 19.3356C24.5549 19.631 24.4161 20.2488 24.7115 20.7154L29.5256 28.3197C29.821 28.7863 29.6822 29.4041 29.2156 29.6995Z" fill="white" stroke="black"/>
</svg>
