<svg width="250" height="74" viewBox="0 0 250 74" fill="none" xmlns="http://www.w3.org/2000/svg">
<rect width="250" height="74" rx="10" fill="#222222"/>
<path d="M84 59.5V34C84 32.8954 84.8954 32 86 32H94C95.1046 32 96 32.8954 96 34V48C96 49.1046 96.8954 50 98 50H125H152C153.105 50 154 49.1046 154 48V34C154 32.8954 154.895 32 156 32H163.5C164.605 32 165.5 32.8954 165.5 34V59.5C165.5 60.6046 164.605 61.5 163.5 61.5H86C84.8954 61.5 84 60.6046 84 59.5Z" fill="white"/>
<path d="M114.914 22.5858L120.5 17L123.513 13.6518C124.308 12.769 125.692 12.769 126.487 13.6518L129.5 17L135.356 22.5481C136.669 23.7915 135.789 26 133.981 26H130.5C129.395 26 128.5 26.8954 128.5 28V43.5C128.5 44.6046 127.605 45.5 126.5 45.5H123.5C122.395 45.5 121.5 44.6046 121.5 43.5V28C121.5 26.8954 120.605 26 119.5 26H116.328C114.547 26 113.654 23.8457 114.914 22.5858Z" fill="white"/>
<path d="M84 59.5V34C84 32.8954 84.8954 32 86 32H94C95.1046 32 96 32.8954 96 34V48C96 49.1046 96.8954 50 98 50H125H152C153.105 50 154 49.1046 154 48V34C154 32.8954 154.895 32 156 32H163.5C164.605 32 165.5 32.8954 165.5 34V59.5C165.5 60.6046 164.605 61.5 163.5 61.5H86C84.8954 61.5 84 60.6046 84 59.5Z" stroke="black" stroke-width="3"/>
<path d="M114.914 22.5858L120.5 17L123.513 13.6518C124.308 12.769 125.692 12.769 126.487 13.6518L129.5 17L135.356 22.5481C136.669 23.7915 135.789 26 133.981 26H130.5C129.395 26 128.5 26.8954 128.5 28V43.5C128.5 44.6046 127.605 45.5 126.5 45.5H123.5C122.395 45.5 121.5 44.6046 121.5 43.5V28C121.5 26.8954 120.605 26 119.5 26H116.328C114.547 26 113.654 23.8457 114.914 22.5858Z" stroke="black" stroke-width="3"/>
</svg>
