<svg width="250" height="74" viewBox="0 0 250 74" fill="none" xmlns="http://www.w3.org/2000/svg">
<rect width="250" height="74" rx="10" fill="#222222"/>
<path fill-rule="evenodd" clip-rule="evenodd" d="M102 59.5V14C102 12.8954 102.895 12 104 12H113C114.105 12 115 12.8954 115 14V24C115 25.1046 115.895 26 117 26H130C131.105 26 132 25.1046 132 24V14C132 12.8954 132.895 12 134 12H138.803C139.54 12 140.217 12.4056 140.565 13.0556L147.263 25.5575C147.419 25.848 147.5 26.1724 147.5 26.502V59.5C147.5 60.6046 146.605 61.5 145.5 61.5H104C102.895 61.5 102 60.6046 102 59.5ZM112.5 56.5C111.395 56.5 110.5 55.6046 110.5 54.5V37C110.5 35.8954 111.395 35 112.5 35H136.5C137.605 35 138.5 35.8954 138.5 37V54.5C138.5 55.6046 137.605 56.5 136.5 56.5H112.5Z" fill="white"/>
<path d="M126.5 24C127.605 24 128.5 23.1046 128.5 22V14C128.5 12.8954 127.605 12 126.5 12H120.5C119.395 12 118.5 12.8954 118.5 14V22C118.5 23.1046 119.395 24 120.5 24H126.5Z" fill="white"/>
<path d="M117 38.5C115.895 38.5 115 39.3954 115 40.5V45.5V50.5C115 51.6046 115.895 52.5 117 52.5H132C133.105 52.5 134 51.6046 134 50.5V45.5V40.5C134 39.3954 133.105 38.5 132 38.5H117Z" fill="white"/>
<path d="M102 14V59.5M102 14C102 12.8954 102.895 12 104 12M102 14V14C102 12.8954 102.895 12 104 12V12M102 59.5C102 60.6046 102.895 61.5 104 61.5M102 59.5V59.5C102 60.6046 102.895 61.5 104 61.5V61.5M104 61.5H145.5M145.5 61.5C146.605 61.5 147.5 60.6046 147.5 59.5M145.5 61.5V61.5C146.605 61.5 147.5 60.6046 147.5 59.5V59.5M147.5 59.5V26.502M147.5 26.502C147.5 26.1724 147.419 25.848 147.263 25.5575M147.5 26.502V26.502C147.5 26.1724 147.419 25.848 147.263 25.5575V25.5575M147.263 25.5575L140.565 13.0556M140.565 13.0556C140.217 12.4056 139.54 12 138.803 12M140.565 13.0556V13.0556C140.217 12.4056 139.54 12 138.803 12V12M138.803 12H134M134 12C132.895 12 132 12.8954 132 14M134 12V12C132.895 12 132 12.8954 132 14V14M132 14V24M132 24C132 25.1046 131.105 26 130 26M132 24V24C132 25.1046 131.105 26 130 26V26M130 26H117M117 26C115.895 26 115 25.1046 115 24M117 26V26C115.895 26 115 25.1046 115 24V24M115 24V14M115 14C115 12.8954 114.105 12 113 12M115 14V14C115 12.8954 114.105 12 113 12V12M113 12H104M115 45.5V40.5C115 39.3954 115.895 38.5 117 38.5H132C133.105 38.5 134 39.3954 134 40.5V45.5M115 45.5V50.5C115 51.6046 115.895 52.5 117 52.5H132C133.105 52.5 134 51.6046 134 50.5V45.5M115 45.5H134M138.5 37V54.5C138.5 55.6046 137.605 56.5 136.5 56.5H112.5C111.395 56.5 110.5 55.6046 110.5 54.5V37C110.5 35.8954 111.395 35 112.5 35H136.5C137.605 35 138.5 35.8954 138.5 37ZM118.5 22V14C118.5 12.8954 119.395 12 120.5 12H126.5C127.605 12 128.5 12.8954 128.5 14V22C128.5 23.1046 127.605 24 126.5 24H120.5C119.395 24 118.5 23.1046 118.5 22Z" stroke="black" stroke-width="3"/>
</svg>
