<svg width="37" height="36" viewBox="0 0 37 36" fill="none" xmlns="http://www.w3.org/2000/svg">
<path d="M13.2319 19.4335L1.47327 30.8742C0.666217 31.6595 0.666216 32.9559 1.47327 33.7411L2.40016 34.643C3.17654 35.3984 4.4132 35.3984 5.18958 34.643L17.1053 23.0493C17.8817 22.2939 19.1183 22.2939 19.8947 23.0493L31.8104 34.643C32.5868 35.3984 33.8235 35.3984 34.5998 34.643L35.5267 33.7411C36.3338 32.9559 36.3338 31.6595 35.5267 30.8742L23.7681 19.4335C22.9611 18.6482 22.9611 17.3518 23.7681 16.5665L35.5267 5.12576C36.3338 4.34052 36.3338 3.0441 35.5267 2.25886L34.5998 1.35702C33.8235 0.601618 32.5868 0.601617 31.8104 1.35701L19.8947 12.9507C19.1183 13.7061 17.8817 13.7061 17.1053 12.9507L5.18958 1.35702C4.4132 0.601618 3.17654 0.601617 2.40016 1.35701L1.47327 2.25886C0.666217 3.0441 0.666216 4.34052 1.47327 5.12576L13.2319 16.5665C14.0389 17.3518 14.0389 18.6482 13.2319 19.4335Z" fill="#D9D9D9" stroke="#AEAEAE"/>
</svg>
