<svg width="67" height="61" viewBox="0 0 67 61" fill="none" xmlns="http://www.w3.org/2000/svg">
<path fill-rule="evenodd" clip-rule="evenodd" d="M53.0662 54.6226L57.7066 50.037C58.3456 49.4055 58.3456 48.3817 57.7066 47.7502L53.0662 43.1647C52.4271 42.5332 52.4271 41.5094 53.0662 40.8779L56.748 37.2396C57.0549 36.9363 57.4711 36.766 57.9051 36.766H63.3636C64.2674 36.766 65 36.042 65 35.1489V26.2553C65 25.3623 64.2674 24.6383 63.3636 24.6383H57.9051C57.4711 24.6383 57.0549 24.4679 56.748 24.1647L53.0662 20.5264C52.4271 19.8949 52.4271 18.8711 53.0662 18.2396L57.7066 13.654C58.3456 13.0226 58.3456 11.9987 57.7066 11.3672L53.0662 6.7817C52.4271 6.15022 51.391 6.15022 50.752 6.7817L45.7096 11.7645C45.2507 12.2179 44.5641 12.3606 43.9594 12.1282L38.6342 10.0818C38.0052 9.84006 37.5909 9.24158 37.5909 8.5747V3.61702C37.5909 2.72396 36.8583 2 35.9545 2H29.4091C28.5054 2 27.7727 2.72397 27.7727 3.61702V8.68148C27.7727 9.29396 27.4225 9.85388 26.8682 10.1278L23.1004 11.9894C22.4704 12.3007 21.7095 12.1787 21.2115 11.6865L16.248 6.7817C15.609 6.15022 14.5729 6.15022 13.9338 6.7817L9.29345 11.3672C8.65441 11.9987 8.65441 13.0226 9.29345 13.654L13.9338 18.2396C14.5729 18.8711 14.5729 19.8949 13.9338 20.5264L10.252 24.1647C9.94513 24.4679 9.52891 24.6383 9.09492 24.6383H3.63636C2.73262 24.6383 2 25.3623 2 26.2553V35.1489C2 36.042 2.73263 36.766 3.63636 36.766H9.09492C9.52891 36.766 9.94513 36.9363 10.252 37.2396L13.9338 40.8779C14.5729 41.5094 14.5729 42.5332 13.9338 43.1647L9.29345 47.7502C8.65441 48.3817 8.65441 49.4055 9.29345 50.037L13.9338 54.6226C14.5729 55.254 15.609 55.254 16.248 54.6226L21.1617 49.7669C21.6835 49.2513 22.4899 49.1446 23.1306 49.5064L26.9482 51.6621C27.4581 51.95 27.7727 52.4858 27.7727 53.0661V57.383C27.7727 58.276 28.5054 59 29.4091 59H35.9545C36.8583 59 37.5909 58.276 37.5909 57.383V53.1785C37.5909 52.5395 37.9717 51.9604 38.5627 51.7009L43.9276 49.3447C44.5463 49.0729 45.2705 49.2058 45.7492 49.6789L50.752 54.6226C51.391 55.254 52.4271 55.254 53.0662 54.6226ZM44.6547 19.8617C40.9451 14.1328 26.0386 14.078 22.0757 19.8617C17.9451 24.6434 17.9063 37.809 22.0455 42.5C26.1457 47.1469 40.8406 47.146 44.5519 42.6299C44.6228 42.5436 44.6948 42.4636 44.7739 42.3848C48.9446 38.2328 48.8979 25.2459 44.6547 19.8617Z" fill="#D9D9D9"/>
<path d="M57.7066 50.037L53.0662 54.6226M57.7066 50.037C58.3456 49.4055 58.3456 48.3817 57.7066 47.7502M57.7066 50.037V50.037C58.3434 49.4078 58.3434 48.3795 57.7066 47.7502V47.7502M53.0662 54.6226C52.4271 55.254 51.391 55.254 50.752 54.6226M53.0662 54.6226V54.6226C52.4249 55.2562 51.3933 55.2562 50.752 54.6226V54.6226M50.752 54.6226L45.7492 49.6789M45.7492 49.6789C45.2705 49.2058 44.5463 49.0729 43.9276 49.3447M45.7492 49.6789V49.6789C45.2695 49.2049 44.545 49.0735 43.9276 49.3447V49.3447M43.9276 49.3447L38.5627 51.7009M38.5627 51.7009C37.9717 51.9604 37.5909 52.5395 37.5909 53.1785M38.5627 51.7009V51.7009C37.978 51.9576 37.5909 52.54 37.5909 53.1785V53.1785M37.5909 53.1785V57.383M37.5909 57.383C37.5909 58.276 36.8583 59 35.9545 59M37.5909 57.383V57.383C37.5909 58.276 36.8669 59 35.9739 59H35.9545M35.9545 59H29.4091M29.4091 59C28.5054 59 27.7727 58.276 27.7727 57.383M29.4091 59H29.3897C28.4967 59 27.7727 58.276 27.7727 57.383V57.383M27.7727 57.383V53.0661M27.7727 53.0661C27.7727 52.4858 27.4581 51.95 26.9482 51.6621M27.7727 53.0661V53.0661C27.7727 52.4862 27.4531 51.9472 26.9482 51.6621V51.6621M26.9482 51.6621L23.1306 49.5064M23.1306 49.5064C22.4899 49.1446 21.6835 49.2513 21.1617 49.7669M23.1306 49.5064V49.5064C22.4904 49.1448 21.6847 49.2501 21.1617 49.7669V49.7669M21.1617 49.7669L16.248 54.6226M16.248 54.6226C15.609 55.254 14.5729 55.254 13.9338 54.6226M16.248 54.6226V54.6226C15.6067 55.2562 14.5751 55.2562 13.9338 54.6226V54.6226M13.9338 54.6226L9.29345 50.037M9.29345 50.037C8.65441 49.4055 8.65441 48.3817 9.29345 47.7502M9.29345 50.037V50.037C8.65664 49.4078 8.65665 48.3795 9.29345 47.7502V47.7502M9.29345 47.7502L13.9338 43.1647M13.9338 43.1647C14.5729 42.5332 14.5729 41.5094 13.9338 40.8779M13.9338 43.1647V43.1647C14.5706 42.5354 14.5706 41.5071 13.9338 40.8779V40.8779M13.9338 40.8779L10.252 37.2396M10.252 37.2396C9.94513 36.9363 9.52891 36.766 9.09492 36.766M10.252 37.2396V37.2396C9.94493 36.9361 9.52663 36.766 9.09492 36.766V36.766M9.09492 36.766H3.63636M3.63636 36.766C2.73263 36.766 2 36.042 2 35.1489M3.63636 36.766H3.61702C2.72396 36.766 2 36.042 2 35.1489V35.1489M2 35.1489V26.2553M2 26.2553C2 25.3623 2.73262 24.6383 3.63636 24.6383M2 26.2553V26.2553C2 25.3623 2.72396 24.6383 3.61702 24.6383H3.63636M3.63636 24.6383H9.09492M9.09492 24.6383C9.52891 24.6383 9.94513 24.4679 10.252 24.1647M9.09492 24.6383V24.6383C9.52663 24.6383 9.94493 24.4681 10.252 24.1647V24.1647M10.252 24.1647L13.9338 20.5264M13.9338 20.5264C14.5729 19.8949 14.5729 18.8711 13.9338 18.2396M13.9338 20.5264V20.5264C14.5706 19.8971 14.5706 18.8688 13.9338 18.2396V18.2396M13.9338 18.2396L9.29345 13.654M9.29345 13.654C8.65441 13.0226 8.65441 11.9987 9.29345 11.3672M9.29345 13.654V13.654C8.65665 13.0248 8.65665 11.9965 9.29345 11.3672V11.3672M9.29345 11.3672L13.9338 6.7817M13.9338 6.7817C14.5729 6.15022 15.609 6.15022 16.248 6.7817M13.9338 6.7817V6.7817C14.5751 6.14803 15.6067 6.14803 16.248 6.7817V6.7817M16.248 6.7817L21.2115 11.6865M21.2115 11.6865C21.7095 12.1787 22.4704 12.3007 23.1004 11.9894M21.2115 11.6865V11.6865C21.7106 12.1797 22.4713 12.3002 23.1004 11.9894V11.9894M23.1004 11.9894L26.8682 10.1278M26.8682 10.1278C27.4225 9.85388 27.7727 9.29396 27.7727 8.68148M26.8682 10.1278V10.1278C27.4168 9.85669 27.7727 9.29347 27.7727 8.68148V8.68148M27.7727 8.68148V3.61702M27.7727 3.61702C27.7727 2.72397 28.5054 2 29.4091 2M27.7727 3.61702V3.61702C27.7727 2.72397 28.4967 2 29.3897 2H29.4091M29.4091 2H35.9545M35.9545 2C36.8583 2 37.5909 2.72396 37.5909 3.61702M35.9545 2H35.9739C36.8669 2 37.5909 2.72397 37.5909 3.61702V3.61702M37.5909 3.61702V8.5747M37.5909 8.5747C37.5909 9.24158 38.0052 9.84006 38.6342 10.0818M37.5909 8.5747V8.5747C37.5909 9.24108 38.0014 9.8386 38.6234 10.0776L38.6342 10.0818M38.6342 10.0818L43.9594 12.1282M43.9594 12.1282C44.5641 12.3606 45.2507 12.2179 45.7096 11.7645M43.9594 12.1282V12.1282C44.5626 12.36 45.2499 12.2187 45.7096 11.7645V11.7645M45.7096 11.7645L50.752 6.7817M50.752 6.7817C51.391 6.15022 52.4271 6.15022 53.0662 6.7817M50.752 6.7817V6.7817C51.3933 6.14803 52.4249 6.14803 53.0662 6.7817V6.7817M53.0662 6.7817L57.7066 11.3672M57.7066 11.3672C58.3456 11.9987 58.3456 13.0226 57.7066 13.654M57.7066 11.3672V11.3672C58.3434 11.9965 58.3434 13.0248 57.7066 13.654V13.654M57.7066 13.654L53.0662 18.2396M53.0662 18.2396C52.4271 18.8711 52.4271 19.8949 53.0662 20.5264M53.0662 18.2396V18.2396C52.4294 18.8688 52.4294 19.8971 53.0662 20.5264V20.5264M53.0662 20.5264L56.748 24.1647M56.748 24.1647C57.0549 24.4679 57.4711 24.6383 57.9051 24.6383M56.748 24.1647V24.1647C57.0551 24.4681 57.4734 24.6383 57.9051 24.6383V24.6383M57.9051 24.6383H63.3636M63.3636 24.6383C64.2674 24.6383 65 25.3623 65 26.2553M63.3636 24.6383H63.383C64.276 24.6383 65 25.3623 65 26.2553V26.2553M65 26.2553V35.1489M65 35.1489C65 36.042 64.2674 36.766 63.3636 36.766M65 35.1489V35.1489C65 36.042 64.276 36.766 63.383 36.766H63.3636M63.3636 36.766H57.9051M57.9051 36.766C57.4711 36.766 57.0549 36.9363 56.748 37.2396M57.9051 36.766V36.766C57.4734 36.766 57.0551 36.9361 56.748 37.2396V37.2396M56.748 37.2396L53.0662 40.8779M53.0662 40.8779C52.4271 41.5094 52.4271 42.5332 53.0662 43.1647M53.0662 40.8779V40.8779C52.4294 41.5071 52.4294 42.5354 53.0662 43.1647V43.1647M53.0662 43.1647L57.7066 47.7502M22.0757 19.8617C26.0386 14.078 40.9451 14.1328 44.6547 19.8617C48.8979 25.2459 48.9446 38.2328 44.7739 42.3848C44.6948 42.4636 44.6228 42.5436 44.5519 42.6299C40.8406 47.146 26.1457 47.1469 22.0455 42.5C17.9063 37.809 17.9451 24.6434 22.0757 19.8617Z" stroke="#AEAEAE" stroke-width="3"/>
</svg>
