<svg width="60" height="83" viewBox="0 0 60 83" fill="none" xmlns="http://www.w3.org/2000/svg">
<path d="M56.8894 8.44243L3.44472 8.44246C2.1928 8.72798 1 7.77659 1 6.49252V3.59524C1 2.66201 1.64541 1.85283 2.55528 1.64531L56 1.64529C57.2519 1.35976 58.4447 1.08772 58.4447 3.59522V6.4925C58.4447 7.42573 57.7993 8.23492 56.8894 8.44243Z" fill="white"/>
<path d="M56.8894 8.44243L3.44472 8.44246C2.1928 8.72798 1 7.77659 1 6.49252V3.59524C1 2.66201 1.64541 1.85283 2.55528 1.64531L56 1.64529C57.2519 1.35976 58.4447 1.08772 58.4447 3.59522V6.4925C58.4447 7.42573 57.7993 8.23492 56.8894 8.44243Z" fill="white" fill-opacity="0.2"/>
<path fill-rule="evenodd" clip-rule="evenodd" d="M14.75 26C13.7835 26 13 26.7835 13 27.75V69.75C13 70.7165 13.7835 71.5 14.75 71.5C15.7165 71.5 16.5 70.7165 16.5 69.75V27.75C16.5 26.7835 15.7165 26 14.75 26ZM30.5 26C29.3954 26 28.5 26.8955 28.5 28V69.5C28.5 70.6046 29.3954 71.5 30.5 71.5C31.6046 71.5 32.5 70.6046 32.5 69.5V28C32.5 26.8955 31.6046 26 30.5 26ZM46 26C44.8954 26 44 26.8955 44 28V69.5C44 70.6046 44.8954 71.5 46 71.5C47.1046 71.5 48 70.6046 48 69.5V28C48 26.8955 47.1046 26 46 26Z" fill="#0C1515"/>
<path fill-rule="evenodd" clip-rule="evenodd" d="M14.75 26C13.7835 26 13 26.7835 13 27.75V69.75C13 70.7165 13.7835 71.5 14.75 71.5C15.7165 71.5 16.5 70.7165 16.5 69.75V27.75C16.5 26.7835 15.7165 26 14.75 26ZM30.5 26C29.3954 26 28.5 26.8955 28.5 28V69.5C28.5 70.6046 29.3954 71.5 30.5 71.5C31.6046 71.5 32.5 70.6046 32.5 69.5V28C32.5 26.8955 31.6046 26 30.5 26ZM46 26C44.8954 26 44 26.8955 44 28V69.5C44 70.6046 44.8954 71.5 46 71.5C47.1046 71.5 48 70.6046 48 69.5V28C48 26.8955 47.1046 26 46 26Z" fill="black" fill-opacity="0.2"/>
<path fill-rule="evenodd" clip-rule="evenodd" d="M1 17V80C1 81.1046 1.89543 82 3 82H56C57.1046 82 58 81.1046 58 80V17C58 15.8955 57.1046 15 56 15H3C1.89543 15 1 15.8955 1 17ZM14.75 71.5C13.7835 71.5 13 70.7165 13 69.75V27.75C13 26.7835 13.7835 26 14.75 26C15.7165 26 16.5 26.7835 16.5 27.75V69.75C16.5 70.7165 15.7165 71.5 14.75 71.5ZM30.5 71.5C29.3954 71.5 28.5 70.6046 28.5 69.5V28C28.5 26.8955 29.3954 26 30.5 26C31.6046 26 32.5 26.8955 32.5 28V69.5C32.5 70.6046 31.6046 71.5 30.5 71.5ZM46 71.5C44.8954 71.5 44 70.6046 44 69.5V28C44 26.8955 44.8954 26 46 26C47.1046 26 48 26.8955 48 28V69.5C48 70.6046 47.1046 71.5 46 71.5Z" fill="white"/>
<path fill-rule="evenodd" clip-rule="evenodd" d="M1 17V80C1 81.1046 1.89543 82 3 82H56C57.1046 82 58 81.1046 58 80V17C58 15.8955 57.1046 15 56 15H3C1.89543 15 1 15.8955 1 17ZM14.75 71.5C13.7835 71.5 13 70.7165 13 69.75V27.75C13 26.7835 13.7835 26 14.75 26C15.7165 26 16.5 26.7835 16.5 27.75V69.75C16.5 70.7165 15.7165 71.5 14.75 71.5ZM30.5 71.5C29.3954 71.5 28.5 70.6046 28.5 69.5V28C28.5 26.8955 29.3954 26 30.5 26C31.6046 26 32.5 26.8955 32.5 28V69.5C32.5 70.6046 31.6046 71.5 30.5 71.5ZM46 71.5C44.8954 71.5 44 70.6046 44 69.5V28C44 26.8955 44.8954 26 46 26C47.1046 26 48 26.8955 48 28V69.5C48 70.6046 47.1046 71.5 46 71.5Z" fill="white" fill-opacity="0.2"/>
<path d="M3.44472 8.44246L3.44472 7.44246H3.33213L3.22236 7.46749L3.44472 8.44246ZM2.55528 1.64531L2.55528 0.645312L2.44269 0.645312L2.33292 0.670347L2.55528 1.64531ZM12 27.75V69.75H14V27.75H12ZM17.5 69.75V27.75H15.5V69.75H17.5ZM27.5 28V69.5H29.5V28H27.5ZM33.5 69.5V28H31.5V69.5H33.5ZM43 28V69.5H45V28H43ZM49 69.5V28H47V69.5H49ZM0 17V80H2V17H0ZM0 80C0 81.6569 1.34314 83 3 83V81C2.44772 81 2 80.5523 2 80H0ZM3 83H56V81H3V83ZM56 83C57.6569 83 59 81.6569 59 80H57C57 80.5523 56.5523 81 56 81V83ZM59 80V17H57V80H59ZM59 17C59 15.3432 57.6569 14 56 14V16C56.5523 16 57 16.4477 57 17H59ZM56 14H3V16H56V14ZM3 14C1.34315 14 0 15.3432 0 17H2C2 16.4477 2.44771 16 3 16V14ZM56.8894 7.44243L3.44472 7.44246L3.44472 9.44246L56.8894 9.44243V7.44243ZM3.22236 7.46749C2.5964 7.61025 2 7.13456 2 6.49252H0C0 8.41862 1.7892 9.84571 3.66708 9.41742L3.22236 7.46749ZM2 6.49252V3.59524H0V6.49252H2ZM2 3.59524C2 3.12863 2.32271 2.72403 2.77764 2.62028L2.33292 0.670347C0.968117 0.981618 0 2.1954 0 3.59524H2ZM2.55528 2.64531L56 2.64529V0.645288L2.55528 0.645312L2.55528 2.64531ZM56.2224 2.62025C56.5509 2.54532 56.7925 2.49194 57.0017 2.47269C57.2103 2.45351 57.2741 2.48144 57.273 2.48092C57.1497 2.42407 57.4447 2.40302 57.4447 3.59522H59.4447C59.4447 2.27991 59.1433 1.14114 58.1107 0.664817C57.6549 0.454561 57.1858 0.44732 56.8186 0.481094C56.4521 0.5148 56.0751 0.60249 55.7776 0.670323L56.2224 2.62025ZM57.4447 3.59522V6.4925H59.4447V3.59522H57.4447ZM57.4447 6.4925C57.4447 6.95912 57.122 7.36371 56.6671 7.46747L57.1118 9.4174C58.4766 9.10613 59.4447 7.89235 59.4447 6.4925H57.4447ZM2.33292 0.670347C0.968118 0.981618 0 2.1954 0 3.59524H2C2 3.12863 2.32271 2.72403 2.77764 2.62028L2.33292 0.670347ZM59.4447 3.59522C59.4447 1.66912 57.6555 0.242036 55.7776 0.670323L56.2224 2.62025C56.8483 2.47749 57.4447 2.95319 57.4447 3.59522H59.4447ZM57.4447 6.4925C57.4447 6.95912 57.122 7.36371 56.6671 7.46747L57.1118 9.4174C58.4766 9.10613 59.4447 7.89235 59.4447 6.4925H57.4447ZM0 6.49252C0 8.41862 1.7892 9.84571 3.66708 9.41742L3.22236 7.46749C2.59641 7.61025 2 7.13456 2 6.49252H0ZM49 28C49 26.3432 47.6569 25 46 25V27C46.5523 27 47 27.4477 47 28H49ZM46 72.5C47.6569 72.5 49 71.1569 49 69.5H47C47 70.0523 46.5523 70.5 46 70.5V72.5ZM43 69.5C43 71.1569 44.3431 72.5 46 72.5V70.5C45.4477 70.5 45 70.0523 45 69.5H43ZM45 28C45 27.4477 45.4477 27 46 27V25C44.3431 25 43 26.3432 43 28H45ZM33.5 28C33.5 26.3432 32.1569 25 30.5 25V27C31.0523 27 31.5 27.4477 31.5 28H33.5ZM30.5 72.5C32.1569 72.5 33.5 71.1569 33.5 69.5H31.5C31.5 70.0523 31.0523 70.5 30.5 70.5V72.5ZM27.5 69.5C27.5 71.1569 28.8431 72.5 30.5 72.5V70.5C29.9477 70.5 29.5 70.0523 29.5 69.5H27.5ZM29.5 28C29.5 27.4477 29.9477 27 30.5 27V25C28.8431 25 27.5 26.3432 27.5 28H29.5ZM17.5 27.75C17.5 26.2312 16.2688 25 14.75 25V27C15.1642 27 15.5 27.3358 15.5 27.75H17.5ZM14.75 72.5C16.2688 72.5 17.5 71.2688 17.5 69.75H15.5C15.5 70.1643 15.1642 70.5 14.75 70.5V72.5ZM12 69.75C12 71.2688 13.2312 72.5 14.75 72.5V70.5C14.3358 70.5 14 70.1643 14 69.75H12ZM14 27.75C14 27.3358 14.3358 27 14.75 27V25C13.2312 25 12 26.2312 12 27.75H14ZM57 80C57 80.5523 56.5523 81 56 81V83C57.6569 83 59 81.6569 59 80H57ZM56 16C56.5523 16 57 16.4477 57 17H59C59 15.3432 57.6569 14 56 14V16ZM3 14C1.34315 14 0 15.3432 0 17H2C2 16.4477 2.44771 16 3 16V14ZM3 81C2.44772 81 2 80.5523 2 80H0C0 81.6569 1.34314 83 3 83V81Z" fill="black"/>
</svg>
