<svg width="39" height="68" viewBox="0 0 39 68" fill="none" xmlns="http://www.w3.org/2000/svg">
<path d="M19.2 0.703997C25.6 0.703997 30.4 2.304 33.6 5.504C36.864 8.64 38.496 12.768 38.496 17.888C38.496 21.344 36.96 24.928 33.888 28.64C30.88 32.288 27.136 35.296 22.656 37.664L21.024 50.816L12.192 47.072L11.424 31.232C15.968 29.76 19.712 27.872 22.656 25.568C25.6 23.2 27.072 20.704 27.072 18.08C27.072 15.904 26.272 14.208 24.672 12.992C23.136 11.712 21.216 11.072 18.912 11.072C16.928 11.072 14.432 11.552 11.424 12.512C8.48 13.472 5.408 15.04 2.208 17.216L0.576 6.08C3.52 4.224 6.496 2.88 9.504 2.048C12.512 1.152 15.744 0.703997 19.2 0.703997ZM15.936 53.984C17.92 53.984 19.584 54.656 20.928 56C22.272 57.344 22.944 59.008 22.944 60.992C22.944 62.976 22.272 64.64 20.928 65.984C19.584 67.328 17.92 68 15.936 68C13.952 68 12.256 67.328 10.848 65.984C9.504 64.64 8.832 62.976 8.832 60.992C8.832 59.008 9.504 57.344 10.848 56C12.256 54.656 13.952 53.984 15.936 53.984Z" fill="#D9D9D9"/>
<path d="M33.6 5.504L32.8929 6.21111L32.9 6.21818L32.9072 6.22511L33.6 5.504ZM33.888 28.64L33.1176 28.0024L33.1165 28.0038L33.888 28.64ZM22.656 37.664L22.1887 36.7799L21.7278 37.0235L21.6636 37.5409L22.656 37.664ZM21.024 50.816L20.6337 51.7367L21.8533 52.2537L22.0164 50.9391L21.024 50.816ZM12.192 47.072L11.1932 47.1204L11.2236 47.7476L11.8017 47.9927L12.192 47.072ZM11.424 31.232L11.1158 30.2807L10.3881 30.5164L10.4252 31.2804L11.424 31.232ZM22.656 25.568L23.2724 26.3556L23.2828 26.3472L22.656 25.568ZM24.672 12.992L24.0318 13.7602L24.0491 13.7746L24.0669 13.7882L24.672 12.992ZM11.424 12.512L11.12 11.5593L11.114 11.5613L11.424 12.512ZM2.208 17.216L1.21857 17.361L1.45007 18.9407L2.77031 18.0429L2.208 17.216ZM0.576 6.07999L0.0426993 5.23407L-0.507793 5.58112L-0.413431 6.225L0.576 6.07999ZM9.504 2.048L9.77059 3.01181L9.78006 3.00919L9.78948 3.00638L9.504 2.048ZM20.928 56L20.2209 56.7071L20.928 56ZM10.848 65.984L10.1409 66.6911L10.1491 66.6993L10.1575 66.7074L10.848 65.984ZM10.848 56L10.1575 55.2766L10.1491 55.2847L10.1409 55.2929L10.848 56ZM19.2 1.70399C25.4459 1.70399 29.9466 3.26478 32.8929 6.21111L34.3071 4.79689C30.8534 1.34321 25.7541 -0.296005 19.2 -0.296005V1.70399ZM32.9072 6.22511C35.9484 9.14704 37.496 13.001 37.496 17.888H39.496C39.496 12.535 37.7796 8.13295 34.2928 4.78289L32.9072 6.22511ZM37.496 17.888C37.496 21.0342 36.0991 24.3998 33.1176 28.0024L34.6584 29.2776C37.8209 25.4562 39.496 21.6537 39.496 17.888H37.496ZM33.1165 28.0038C30.1984 31.5428 26.5604 34.4692 22.1887 36.7799L23.1233 38.5481C27.7116 36.1228 31.5616 33.0332 34.6595 29.2762L33.1165 28.0038ZM21.6636 37.5409L20.0316 50.6929L22.0164 50.9391L23.6484 37.7871L21.6636 37.5409ZM21.4143 49.8953L12.5823 46.1513L11.8017 47.9927L20.6337 51.7367L21.4143 49.8953ZM13.1908 47.0236L12.4228 31.1836L10.4252 31.2804L11.1932 47.1204L13.1908 47.0236ZM11.7322 32.1833C16.3582 30.6848 20.2144 28.7487 23.2723 26.3555L22.0397 24.7805C19.2096 26.9953 15.5778 28.8352 11.1158 30.2807L11.7322 32.1833ZM23.2828 26.3472C26.3547 23.8763 28.072 21.1226 28.072 18.08H26.072C26.072 20.2854 24.8453 22.5237 22.0292 24.7888L23.2828 26.3472ZM28.072 18.08C28.072 15.6214 27.1488 13.6183 25.2771 12.1958L24.0669 13.7882C25.3952 14.7977 26.072 16.1866 26.072 18.08H28.072ZM25.3122 12.2238C23.5696 10.7716 21.4123 10.072 18.912 10.072V12.072C21.0197 12.072 22.7024 12.6524 24.0318 13.7602L25.3122 12.2238ZM18.912 10.072C16.7824 10.072 14.1754 10.5842 11.12 11.5593L11.728 13.4647C14.6886 12.5198 17.0736 12.072 18.912 12.072V10.072ZM11.114 11.5613C8.06143 12.5567 4.90503 14.1727 1.64569 16.3891L2.77031 18.0429C5.91097 15.9073 8.89857 14.3873 11.734 13.4627L11.114 11.5613ZM3.19743 17.071L1.56543 5.93499L-0.413431 6.225L1.21857 17.361L3.19743 17.071ZM1.1093 6.92592C3.98003 5.11612 6.86691 3.81495 9.77059 3.01181L9.23741 1.08419C6.12509 1.94504 3.05997 3.33188 0.0426993 5.23407L1.1093 6.92592ZM9.78948 3.00638C12.696 2.14061 15.831 1.70399 19.2 1.70399V-0.296005C15.657 -0.296005 12.328 0.16338 9.21852 1.08961L9.78948 3.00638ZM15.936 54.984C17.6677 54.984 19.0734 55.5596 20.2209 56.7071L21.6351 55.2929C20.0946 53.7524 18.1723 52.984 15.936 52.984V54.984ZM20.2209 56.7071C21.3684 57.8546 21.944 59.2603 21.944 60.992H23.944C23.944 58.7557 23.1756 56.8334 21.6351 55.2929L20.2209 56.7071ZM21.944 60.992C21.944 62.7237 21.3684 64.1294 20.2209 65.2769L21.6351 66.6911C23.1756 65.1506 23.944 63.2283 23.944 60.992H21.944ZM20.2209 65.2769C19.0734 66.4244 17.6677 67 15.936 67V69C18.1723 69 20.0946 68.2316 21.6351 66.6911L20.2209 65.2769ZM15.936 67C14.2036 67 12.7565 66.4233 11.5385 65.2606L10.1575 66.7074C11.7555 68.2327 13.7004 69 15.936 69V67ZM11.5551 65.2769C10.4076 64.1294 9.832 62.7237 9.832 60.992H7.832C7.832 63.2283 8.60039 65.1506 10.1409 66.6911L11.5551 65.2769ZM9.832 60.992C9.832 59.2603 10.4076 57.8546 11.5551 56.7071L10.1409 55.2929C8.60039 56.8334 7.832 58.7557 7.832 60.992H9.832ZM11.5385 56.7234C12.7565 55.5607 14.2037 54.984 15.936 54.984V52.984C13.7004 52.984 11.7555 53.7513 10.1575 55.2766L11.5385 56.7234Z" fill="#AEAEAE"/>
</svg>
