<svg width="250" height="74" viewBox="0 0 250 74" fill="none" xmlns="http://www.w3.org/2000/svg">
<rect width="250" height="74" rx="10" fill="#222222"/>
<path d="M84 61V35.5C84 34.3954 84.8954 33.5 86 33.5H94C95.1046 33.5 96 34.3954 96 35.5V49.5C96 50.6046 96.8954 51.5 98 51.5H125H152C153.105 51.5 154 50.6046 154 49.5V35.5C154 34.3954 154.895 33.5 156 33.5H163.5C164.605 33.5 165.5 34.3954 165.5 35.5V61C165.5 62.1046 164.605 63 163.5 63H86C84.8954 63 84 62.1046 84 61Z" fill="white"/>
<path d="M114.914 33.9142L121.5 40.5L123.698 42.3844C124.447 43.0263 125.553 43.0263 126.302 42.3844L128.5 40.5L135.379 33.9483C136.687 32.7032 135.805 30.5 134 30.5H130.5C129.395 30.5 128.5 29.6046 128.5 28.5V12C128.5 10.8954 127.605 10 126.5 10H123.5C122.395 10 121.5 10.8954 121.5 12V28.5C121.5 29.6046 120.605 30.5 119.5 30.5H116.328C114.547 30.5 113.654 32.6543 114.914 33.9142Z" fill="white"/>
<path d="M84 61V35.5C84 34.3954 84.8954 33.5 86 33.5H94C95.1046 33.5 96 34.3954 96 35.5V49.5C96 50.6046 96.8954 51.5 98 51.5H125H152C153.105 51.5 154 50.6046 154 49.5V35.5C154 34.3954 154.895 33.5 156 33.5H163.5C164.605 33.5 165.5 34.3954 165.5 35.5V61C165.5 62.1046 164.605 63 163.5 63H86C84.8954 63 84 62.1046 84 61Z" stroke="black" stroke-width="3"/>
<path d="M114.914 33.9142L121.5 40.5L123.698 42.3844C124.447 43.0263 125.553 43.0263 126.302 42.3844L128.5 40.5L135.379 33.9483C136.687 32.7032 135.805 30.5 134 30.5H130.5C129.395 30.5 128.5 29.6046 128.5 28.5V12C128.5 10.8954 127.605 10 126.5 10H123.5C122.395 10 121.5 10.8954 121.5 12V28.5C121.5 29.6046 120.605 30.5 119.5 30.5H116.328C114.547 30.5 113.654 32.6543 114.914 33.9142Z" stroke="black" stroke-width="3"/>
</svg>
